<?xml version="1.0" encoding="utf-8"?>
<!-- Generator: Adobe Illustrator 23.0.4, SVG Export Plug-In . SVG Version: 6.00 Build 0)  -->
<svg version="1.1" id="Calque_1" xmlns="http://www.w3.org/2000/svg" xmlns:xlink="http://www.w3.org/1999/xlink" x="0px" y="0px"
	 viewBox="0 0 463 166" style="enable-background:new 0 0 463 166;" xml:space="preserve">
<style type="text/css">
	.st0{fill:#32325D;}
	.st1{fill:#3ECF8E;}
</style>
<path class="st0" d="M245.7,100.3h12.2c-0.4,1.5-0.6,2.7-0.8,3.4c-2.6,9.5-8,15.9-16.5,19.2c-5.4,2.1-13.7,3.1-24.9,3.1
	c-15,0-24.1-3.3-27.2-9.8c-2.6-5.4-1.7-16.1,2.5-32c4.2-15.5,8.9-26.1,14.2-31.7c6.4-6.8,17.3-10.2,32.6-10.2
	c11.1,0,18.6,1.2,22.6,3.5c6.1,3.6,7.7,12,5,25c-0.6,2.8-1.9,8-3.8,15.6H203c-3.1,11.9-4.1,19.4-3,22.7c1.7,4.6,7.8,6.9,18.5,6.9
	c12.6,0,20.3-1.8,23.2-5.4C243,108.9,244.3,105.5,245.7,100.3z M251.9,77.1c1.8-7,2.7-11.4,2.8-13.3c0.4-5.3-1.1-8.7-4.4-10.2
	c-2.7-1.2-7.3-1.8-14-1.8c-6,0-10.3,0.3-13.1,1c-4.9,1.2-8.6,3.8-11.3,7.7c-2.3,3.4-4.4,8.9-6.4,16.5L251.9,77.1L251.9,77.1z
	 M313,8.7l-31.1,116.2H270L301.2,8.7H313z M358.6,42.3c13.3,0,21.8,1.9,25.3,5.8c4.7,5,4.4,17.1-0.6,36.1
	c-2.7,9.9-5.1,17.2-7.3,21.8c-4.3,8.7-9.7,14.4-16.3,17c-5.2,2-13,3.1-23.3,3.1c-13.6,0-22.2-1.9-25.7-5.8
	c-3.2-3.5-4.3-9.3-3.4-17.4c0.5-4.1,1.9-10.7,4.4-19.7c4.9-18.3,11-30,18.4-35C335.7,44.3,345.2,42.3,358.6,42.3z M355.9,52.4
	c-9.5,0-15.9,1.1-19.1,3.3c-4.4,3.1-8.6,12.3-12.8,27.6c-4.4,16.6-5.3,26.4-2.5,29.4c2,2.2,7.8,3.2,17.4,3.2
	c9.5,0,15.8-1.1,18.9-3.2c4.4-3.1,8.7-12.6,13-28.5c4.3-15.9,5-25.4,2.3-28.4C371.1,53.6,365.4,52.4,355.9,52.4z M450.9,41.7
	c-0.7,0-1.5-0.1-2.2-0.1c-5.7,0-11,1-15.7,3c-3.4,1.4-7,4.3-10.7,8.5l-0.2-0.3l3.7-9.4H414l-21.8,81.4H404L417.1,76
	c2-7.5,4.2-12.9,6.5-15.9c4.2-5.6,10.7-8.4,19.5-8.4c1.9,0,3.6,0.2,5,0.6L450.9,41.7z"/>
<path class="st1" d="M185.3,125.3h-18.8l-27.1-30.1l-71,62.2h-6.1l68.8-73.1L95.9,44.7h19L139.6,73l70.2-60.5h6.1l-67.3,71.7
	L185.3,125.3z"/>
<path class="st0" d="M36.4,66.3H24.5c1.8-6.4,3.8-11,5.9-13.9c2.9-4,7.2-6.7,12.9-8.2c4.9-1.3,11.6-2,20.1-2
	c7.9,0,13.7,0.5,17.4,1.5c6.1,1.8,9.7,5.2,10.7,10.4c0.8,4,0.1,9.7-1.8,17l-14.5,54h-12l3.4-8.8l-0.2-0.1c-4.1,4.3-8.9,7.2-14.6,8.6
	c-3.7,1-9,1.5-15.9,1.5c-11.9,0-19.7-2.1-23.3-6.3c-3-3.6-3.4-9.8-1-18.5C14.4,91,18.8,84,24.8,80.3c5.4-3.3,13.8-5,25.2-5
	c8.9,0,15.6,1,19.9,2.9c2.1,1,3.5,2.8,4.2,5.5l0.3-0.1l2.7-9.9c2.5-9.3,2.9-15.3,1.1-18c-1.9-2.9-7.4-4.4-16.5-4.4
	c-6.9,0-11.8,0.5-14.6,1.5c-5.1,1.7-8.4,5.3-9.9,10.9C37,64.2,36.7,65.1,36.4,66.3z M51.5,84.9c-8.4,0-14,0.5-16.8,1.6
	c-4.9,1.9-8.3,6.4-10.2,13.4c-1.9,7.1-1.4,11.8,1.7,13.9c2.1,1.6,7.1,2.4,15,2.4c10.7,0,18.4-1.6,23-4.7c2.8-1.9,4.8-5.3,6.2-10.4
	c1.9-7,0.9-11.6-3-13.9C64.7,85.7,59.4,84.9,51.5,84.9z"/>
</svg>
