<svg xmlns="http://www.w3.org/2000/svg" xml:space="preserve" id="Calque_1" x="0" y="0" version="1.1" viewBox="0 0 463 166"><style>.st0{fill:#32325d}</style><path d="M245.7 100.3h12.2c-.4 1.5-.6 2.7-.8 3.4-2.6 9.5-8 15.9-16.5 19.2-5.4 2.1-13.7 3.1-24.9 3.1-15 0-24.1-3.3-27.2-9.8-2.6-5.4-1.7-16.1 2.5-32 4.2-15.5 8.9-26.1 14.2-31.7 6.4-6.8 17.3-10.2 32.6-10.2 11.1 0 18.6 1.2 22.6 3.5 6.1 3.6 7.7 12 5 25-.6 2.8-1.9 8-3.8 15.6H203c-3.1 11.9-4.1 19.4-3 22.7 1.7 4.6 7.8 6.9 18.5 6.9 12.6 0 20.3-1.8 23.2-5.4 1.3-1.7 2.6-5.1 4-10.3m6.2-23.2c1.8-7 2.7-11.4 2.8-13.3.4-5.3-1.1-8.7-4.4-10.2-2.7-1.2-7.3-1.8-14-1.8-6 0-10.3.3-13.1 1-4.9 1.2-8.6 3.8-11.3 7.7-2.3 3.4-4.4 8.9-6.4 16.5zM313 8.7l-31.1 116.2H270L301.2 8.7zm45.6 33.6c13.3 0 21.8 1.9 25.3 5.8 4.7 5 4.4 17.1-.6 36.1-2.7 9.9-5.1 17.2-7.3 21.8-4.3 8.7-9.7 14.4-16.3 17-5.2 2-13 3.1-23.3 3.1-13.6 0-22.2-1.9-25.7-5.8-3.2-3.5-4.3-9.3-3.4-17.4.5-4.1 1.9-10.7 4.4-19.7 4.9-18.3 11-30 18.4-35 5.6-3.9 15.1-5.9 28.5-5.9m-2.7 10.1c-9.5 0-15.9 1.1-19.1 3.3-4.4 3.1-8.6 12.3-12.8 27.6-4.4 16.6-5.3 26.4-2.5 29.4 2 2.2 7.8 3.2 17.4 3.2 9.5 0 15.8-1.1 18.9-3.2 4.4-3.1 8.7-12.6 13-28.5s5-25.4 2.3-28.4c-2-2.2-7.7-3.4-17.2-3.4m95-10.7c-.7 0-1.5-.1-2.2-.1-5.7 0-11 1-15.7 3-3.4 1.4-7 4.3-10.7 8.5l-.2-.3 3.7-9.4H414l-21.8 81.4H404L417.1 76c2-7.5 4.2-12.9 6.5-15.9q6.3-8.4 19.5-8.4c1.9 0 3.6.2 5 .6z" class="st0"/><path d="M185.3 125.3h-18.8l-27.1-30.1-71 62.2h-6.1l68.8-73.1-35.2-39.6h19L139.6 73l70.2-60.5h6.1l-67.3 71.7z" style="fill:#3ecf8e"/><path d="M36.4 66.3H24.5c1.8-6.4 3.8-11 5.9-13.9 2.9-4 7.2-6.7 12.9-8.2 4.9-1.3 11.6-2 20.1-2q11.85 0 17.4 1.5c6.1 1.8 9.7 5.2 10.7 10.4.8 4 .1 9.7-1.8 17l-14.5 54h-12l3.4-8.8-.2-.1c-4.1 4.3-8.9 7.2-14.6 8.6q-5.55 1.5-15.9 1.5c-11.9 0-19.7-2.1-23.3-6.3-3-3.6-3.4-9.8-1-18.5C14.4 91 18.8 84 24.8 80.3c5.4-3.3 13.8-5 25.2-5 8.9 0 15.6 1 19.9 2.9 2.1 1 3.5 2.8 4.2 5.5l.3-.1 2.7-9.9c2.5-9.3 2.9-15.3 1.1-18-1.9-2.9-7.4-4.4-16.5-4.4-6.9 0-11.8.5-14.6 1.5-5.1 1.7-8.4 5.3-9.9 10.9-.2.5-.5 1.4-.8 2.6m15.1 18.6c-8.4 0-14 .5-16.8 1.6-4.9 1.9-8.3 6.4-10.2 13.4-1.9 7.1-1.4 11.8 1.7 13.9q3.15 2.4 15 2.4c10.7 0 18.4-1.6 23-4.7 2.8-1.9 4.8-5.3 6.2-10.4 1.9-7 .9-11.6-3-13.9-2.7-1.5-8-2.3-15.9-2.3" class="st0"/></svg>