<?xml version="1.0" encoding="UTF-8" standalone="no"?>
<svg
   xmlns:dc="http://purl.org/dc/elements/1.1/"
   xmlns:cc="http://creativecommons.org/ns#"
   xmlns:rdf="http://www.w3.org/1999/02/22-rdf-syntax-ns#"
   xmlns:svg="http://www.w3.org/2000/svg"
   xmlns="http://www.w3.org/2000/svg"
   xmlns:sodipodi="http://sodipodi.sourceforge.net/DTD/sodipodi-0.dtd"
   xmlns:inkscape="http://www.inkscape.org/namespaces/inkscape"
   version="1.0"
   width="108.11973"
   height="99.700188"
   viewBox="0 0 2175.9095 6924.178"
   id="svg2114"
   xml:space="preserve"
   sodipodi:docname="OpenID_logo.svg"
   inkscape:version="0.92.4 5da689c313, 2019-01-14"><metadata
   id="metadata17"><rdf:RDF><cc:Work
       rdf:about=""><dc:format>image/svg+xml</dc:format><dc:type
         rdf:resource="http://purl.org/dc/dcmitype/StillImage" /><dc:title></dc:title></cc:Work></rdf:RDF></metadata><sodipodi:namedview
   pagecolor="#ffffff"
   bordercolor="#666666"
   borderopacity="1"
   objecttolerance="10"
   gridtolerance="10"
   guidetolerance="10"
   inkscape:pageopacity="0"
   inkscape:pageshadow="2"
   inkscape:window-width="3034"
   inkscape:window-height="1614"
   id="namedview15"
   showgrid="false"
   fit-margin-top="8"
   fit-margin-left="8"
   fit-margin-right="8"
   fit-margin-bottom="8"
   inkscape:zoom="1.846875"
   inkscape:cx="-109.65861"
   inkscape:cy="25.758825"
   inkscape:window-x="0"
   inkscape:window-y="54"
   inkscape:window-maximized="0"
   inkscape:current-layer="g2189" /><defs
   id="defs2127">
    
    
    
    
    
    
    
    
  </defs>
  
<g
   transform="matrix(69.45,0,0,69.45,-9738.1504,-21.170437)"
   id="g2189"><g
     transform="matrix(0.01031807,0,0,0.01031807,228.32455,-109.06528)"
     id="g2202"><path
       d="m -3436.8,14543.2 c -848,-528 -2032,-856 -3328,-856 -2608,0 -4720,1304 -4720,2912 0,1472 1760,2680 4040,2888 v -848 c -1536,-192 -2688,-1032 -2688,-2040 0,-1144 1504,-2080 3368,-2080 928,0 1768,232 2376,608 l -864,536 h 2696 v -1664 z"
       style="fill:#cccccc;fill-opacity:1"
       id="path2204"
       inkscape:connector-curvature="0" /><path
       d="m -7444.8,12247.2 v 6392 848 l 1352,-848 v -7264 z"
       style="fill:#ff6200;fill-opacity:1"
       id="path2206"
       inkscape:connector-curvature="0" /></g></g></svg>