<svg width="312" height="312" viewBox="0 0 312 312" fill="none" xmlns="http://www.w3.org/2000/svg">
<path d="M176.051 56.7626C158.664 65.2005 129.026 130.081 115.253 161.756C124.04 142.296 160.534 97.0316 178.049 99.7456C207.6 100.614 252.436 175.798 270.485 213.641C259.331 188.813 247.83 156.297 229.317 128.099C210.803 99.9017 185.46 62.3288 176.051 56.7626Z" fill="#CB3939"/>
<path d="M251.516 253.44C253.35 234.201 213.345 175.145 193.453 146.91C205.504 164.535 225.189 219.245 213.763 232.794C197.653 257.584 110.119 256.782 68.4096 252.52C95.4171 255.904 129.172 262.989 162.884 261.84C196.596 260.69 241.869 258.582 251.516 253.44Z" fill="#CB3939"/>
<path d="M42 212.121C58.1113 222.796 129.046 215.296 163.321 211.035C142.098 213.372 84.5616 204.988 77.9858 188.53C63.6963 162.648 105.605 85.7943 128.998 51C113.3 73.2357 91.1602 99.6824 76.3068 129.968C61.4534 160.254 42.0044 201.19 42 212.121Z" fill="#CB3939"/>
</svg>
