<?xml version="1.0" encoding="utf-8"?>
<!-- Generator: Adobe Illustrator 19.0.0, SVG Export Plug-In . SVG Version: 6.00 Build 0)  -->
<svg version="1.1" id="LOGO" xmlns="http://www.w3.org/2000/svg" xmlns:xlink="http://www.w3.org/1999/xlink" x="0px" y="0px"
	 viewBox="0 0 59 59" style="enable-background:new 0 0 59 59;" xml:space="preserve" width="300" height="300">
<style type="text/css">
	.st0{fill:#02DC6C;}
	.st1{clip-path:url(#XMLID_423_);fill:#FFFFFF;}
</style>
<path id="XMLID_422_" class="st0" d="M47.7,59H11.3C5.1,59,0,53.9,0,47.7l0-36.3C0,5.1,5.1,0,11.3,0l36.3,0C53.9,0,59,5.1,59,11.3
	v36.3C59,53.9,53.9,59,47.7,59z"/>
<g id="XMLID_497_">
	<g id="XMLID_500_">
		<defs>
			<rect id="XMLID_509_" x="0" y="0" width="59" height="59"/>
		</defs>
		<clipPath id="XMLID_423_">
			<use xlink:href="#XMLID_509_"  style="overflow:visible;"/>
		</clipPath>
		<path id="XMLID_501_" class="st1" d="M42.7,33.2c-1,0-1.8-0.8-1.8-1.8c0-1,0.8-1.8,1.8-1.8c1,0,1.8,0.8,1.8,1.8
			C44.5,32.4,43.7,33.2,42.7,33.2 M33.9,33.2c-1,0-1.8-0.8-1.8-1.8c0-1,0.8-1.8,1.8-1.8c1,0,1.8,0.8,1.8,1.8
			C35.7,32.4,34.9,33.2,33.9,33.2 M47,43.4c2.8-2,4.6-5,4.6-8.4c0-6.1-5.9-11.1-13.3-11.1S25,28.9,25,35c0,6.1,5.9,11.1,13.3,11.1
			c1.5,0,3-0.2,4.3-0.6c0.1,0,0.3-0.1,0.4-0.1c0.3,0,0.5,0.1,0.7,0.2l2.9,1.7c0.1,0,0.2,0.1,0.3,0.1c0.2,0,0.4-0.2,0.4-0.4
			c0-0.1,0-0.2-0.1-0.3c0-0.1-0.4-1.4-0.6-2.2c0-0.1,0-0.2,0-0.3C46.6,43.8,46.8,43.5,47,43.4"/>
		<path id="XMLID_505_" class="st1" d="M28.7,22.9c-1.2,0-2.1-1-2.1-2.1c0-1.2,1-2.1,2.1-2.1s2.1,1,2.1,2.1
			C30.9,21.9,29.9,22.9,28.7,22.9 M18.1,22.9c-1.2,0-2.1-1-2.1-2.1c0-1.2,1-2.1,2.1-2.1c1.2,0,2.1,1,2.1,2.1
			C20.2,21.9,19.3,22.9,18.1,22.9 M23.4,11.7c-8.8,0-15.9,5.9-15.9,13.3c0,4,2.1,7.6,5.5,10c0.3,0.2,0.4,0.5,0.4,0.9
			c0,0.1,0,0.2-0.1,0.3c-0.3,1-0.7,2.6-0.7,2.7c0,0.1-0.1,0.3-0.1,0.4c0,0.3,0.2,0.5,0.5,0.5c0.1,0,0.2,0,0.3-0.1l3.5-2
			c0.3-0.2,0.5-0.2,0.8-0.2c0.2,0,0.3,0,0.5,0.1c1.6,0.5,3.4,0.7,5.2,0.7c0.3,0,0.6,0,0.9,0c-0.3-1-0.5-2.1-0.5-3.3
			c0-6.7,6.5-12.1,14.5-12.1c0.3,0,0.6,0,0.9,0C38,16.6,31.4,11.7,23.4,11.7"/>
	</g>
</g>
</svg>
