<!DOCTYPE svg PUBLIC "-//W3C//DTD SVG 20010904//EN" "http://www.w3.org/TR/2001/REC-SVG-20010904/DTD/svg10.dtd">
<svg version="1.0" xmlns="http://www.w3.org/2000/svg" width="212px" height="212px" viewBox="0 0 2120 2120" preserveAspectRatio="xMidYMid meet">
<g id="layer101" fill="#601bc5" stroke="none">
 <path d="M445 2113 c-167 -35 -206 -53 -288 -132 -68 -65 -111 -149 -128 -246 -20 -116 -20 -1249 0 -1350 37 -185 159 -315 340 -359 83 -20 109 -21 706 -21 603 0 622 1 697 21 171 48 278 149 327 308 20 66 21 86 21 725 0 701 0 703 -51 808 -32 66 -135 168 -202 199 -113 51 -159 54 -805 53 -329 -1 -606 -3 -617 -6z"/>
 </g>
<g id="layer102" fill="#fefdfe" stroke="none">
 <path d="M965 1782 c-2 -2 -2 -29 0 -60 2 -32 7 -168 10 -303 l5 -246 -134 -234 c-150 -262 -275 -474 -316 -534 -14 -22 -29 -45 -33 -51 -4 -8 22 -11 87 -10 l94 1 188 313 c108 180 192 308 197 303 4 -4 91 -145 192 -312 l183 -304 91 -1 c50 0 91 1 91 3 0 2 -26 45 -58 96 -80 126 -138 224 -292 492 l-133 230 7 310 7 310 -91 0 c-51 0 -93 -2 -95 -3z"/>
 </g>

</svg>